<svg width="128" height="128" viewBox="0 0 128 128" fill="none" xmlns="http://www.w3.org/2000/svg">
<path d="M85.3334 112V101.333C85.3334 95.6754 83.0858 90.2492 79.085 86.2484C75.0842 82.2476 69.658 80 64 80H26.6667C21.0088 80 15.5825 82.2476 11.5818 86.2484C7.58099 90.2492 5.33337 95.6754 5.33337 101.333V112" stroke="white" stroke-width="6" stroke-linecap="round" stroke-linejoin="round"/>
<path d="M45.3333 58.6667C57.1154 58.6667 66.6667 49.1154 66.6667 37.3333C66.6667 25.5513 57.1154 16 45.3333 16C33.5513 16 24 25.5513 24 37.3333C24 49.1154 33.5513 58.6667 45.3333 58.6667Z" stroke="white" stroke-width="6" stroke-linecap="round" stroke-linejoin="round"/>
<path d="M106.667 42.6667V74.6667" stroke="white" stroke-width="6" stroke-linecap="round" stroke-linejoin="round"/>
<path d="M122.667 58.6667H90.6666" stroke="white" stroke-width="6" stroke-linecap="round" stroke-linejoin="round"/>
</svg>
